# xmcd
#
# Track frame offsets:
#	150
#	16645
#	33750
#	47323
#	62938
#	76557
#	91105
#	108222
#	124498
#	142990
#	157077
#	169936
#	181571
#	193498
#	195723
#	212881
#	224922
#	243755
#
# Disc length: 3447 seconds
#
# Revision: 1
# Processed by: cddbd v1.5.2PL0 Copyright (c) Steve Scherf et al.
# Submitted via: audiograbber 1.83.01
#
DISCID=f10d7512
DTITLE=Brown Trout and The Lunkers - Sophisticated Beyond Repair
DYEAR=1900
DGENRE=Country
TTITLE0=Cowboy In Touch
TTITLE1=Easter Flowers
TTITLE2=You Again Blues
TTITLE3=Black Hole In This Blue Heart
TTITLE4=Way Back In The Greens
TTITLE5=Dot Friggin' Com
TTITLE6=Vision Of You
TTITLE7=Party As One
TTITLE8=Shoulda Made Love To You
TTITLE9=Tejano Texas
TTITLE10=Key Lime Disease
TTITLE11=Every Day Above Ground
TTITLE12=Garage Sale
TTITLE13=Oh Susannah
TTITLE14=Pony Express
TTITLE15=Lover's Last Call
TTITLE16=Sophisticated Beyond Repair
TTITLE17=Mode For Love
EXTD=
EXTT0=
EXTT1=
EXTT2=
EXTT3=
EXTT4=
EXTT5=
EXTT6=
EXTT7=
EXTT8=
EXTT9=
EXTT10=
EXTT11=
EXTT12=
EXTT13=
EXTT14=
EXTT15=
EXTT16=
EXTT17=
PLAYORDER=
